<svg width="114" height="113" viewBox="0 0 114 113" fill="none" xmlns="http://www.w3.org/2000/svg">
<path d="M106.039 45.213H101.199C100.127 40.9992 98.4611 36.9808 96.2307 33.2332L99.657 29.8059C102.567 26.8976 102.567 22.1641 99.6577 19.2536L94.2473 13.8439C92.8382 12.4345 90.9641 11.658 88.9713 11.658C86.9779 11.658 85.1043 12.4345 83.6951 13.8439L80.2683 17.2698C76.5189 15.0399 72.5008 13.3737 68.288 12.3011V7.46071C68.288 3.34706 64.9405 0 60.8266 0H53.1758C49.0607 0 45.7132 3.34706 45.7132 7.46071V12.3008C41.5002 13.3735 37.482 15.0396 33.7332 17.2686L30.3073 13.8427C28.8974 12.4343 27.0233 11.6578 25.0303 11.6578C23.0369 11.6578 21.163 12.4343 19.7541 13.8437L14.3442 19.2534C12.9343 20.6621 12.1585 22.5359 12.1585 24.5299C12.1585 26.5224 12.9343 28.3955 14.3442 29.8059L17.7708 33.2332C15.5413 36.9806 13.8752 40.9982 12.8023 45.213H7.96289C3.84778 45.213 0.5 48.5605 0.5 52.6744V60.3258C0.5 64.44 3.84778 67.7873 7.96289 67.7873H12.803C13.8752 71.9998 15.5406 76.0168 17.7708 79.7661L14.3442 83.1944C11.4354 86.1024 11.4354 90.8359 14.3442 93.7466L19.7548 99.1575C21.164 100.566 23.0383 101.342 25.0303 101.342C27.0233 101.342 28.8967 100.566 30.3073 99.1575L33.7344 95.729C37.4825 97.9594 41.5002 99.6255 45.7132 100.697V105.538C45.7132 109.653 49.0607 113 53.1758 113H60.8263C64.9405 113 68.2878 109.653 68.2878 105.538V100.697C72.4998 99.6255 76.5182 97.9594 80.2675 95.729L83.6949 99.1565C85.104 100.565 86.9776 101.341 88.9711 101.341C90.9639 101.341 92.8379 100.565 94.2471 99.1565L99.6575 93.7466C102.565 90.8359 102.565 86.1024 99.6568 83.1934L96.2299 79.7661C98.4594 76.0177 100.125 72.0008 101.198 67.7873H106.039C110.153 67.7873 113.5 64.4397 113.5 60.3258V52.6744C113.501 48.5603 110.153 45.213 106.039 45.213ZM109.678 60.3258C109.678 62.3321 108.045 63.9645 106.039 63.9645H98.1475L97.8192 65.4667C96.7637 70.2875 94.8737 74.8474 92.1999 79.0167L91.3693 80.3122L96.953 85.896C98.3716 87.3146 98.3716 89.6243 96.954 91.0443L91.5441 96.4538C90.857 97.1403 89.9429 97.5187 88.9709 97.5187C87.9988 97.5187 87.085 97.1403 86.3972 96.4538L80.8134 90.869L79.5181 91.7002C75.3457 94.3744 70.7868 96.2645 65.9679 97.3175L64.4645 97.6456V105.538C64.4645 107.545 62.8317 109.177 60.8258 109.177H53.1758C51.1686 109.177 49.5358 107.545 49.5358 105.538V97.6483L48.0323 97.3185C43.2132 96.2645 38.6545 94.3742 34.4833 91.7002L33.1883 90.869L27.6043 96.4538C26.917 97.1403 26.0029 97.5201 25.0303 97.5201C24.0585 97.5201 23.1447 97.1403 22.4576 96.4547L17.0474 91.0443C15.6284 89.6243 15.6284 87.316 17.0467 85.8974L22.6307 80.3115L21.8003 79.0169C19.1258 74.845 17.2353 70.2858 16.182 65.4679L15.8537 63.9647H7.96289C5.95538 63.9647 4.32283 62.3324 4.32283 60.3261V52.6746C4.32283 50.6674 5.95538 49.036 7.96289 49.036H15.8525L16.1812 47.5326C17.236 42.712 19.1263 38.1521 21.8003 33.9824L22.6312 32.6873L17.0467 27.1031C16.3592 26.4153 15.9811 25.5019 15.9811 24.5301C15.9811 23.558 16.3592 22.6432 17.0467 21.9566L22.4569 16.547C23.1447 15.8587 24.0578 15.4801 25.0303 15.4801C26.0024 15.4801 26.9172 15.8601 27.6043 16.547L33.1868 22.1297L34.4816 21.2993C38.654 18.6253 43.2132 16.7353 48.0323 15.6793L49.5358 15.3513V7.46071C49.5358 5.45417 51.1686 3.82283 53.1758 3.82283H60.8263C62.8321 3.82283 64.4649 5.45441 64.4649 7.46071V15.351L65.9677 15.6791C70.7872 16.7348 75.3467 18.6251 79.5191 21.2991L80.8139 22.1295L86.3977 16.5467C87.0854 15.8585 87.9993 15.4799 88.9713 15.4799C89.9434 15.4799 90.8575 15.8582 91.5445 16.5467L96.9545 21.9564C98.3733 23.376 98.3733 25.684 96.955 27.1028L91.3707 32.6871L92.2016 33.9821C94.8761 38.1528 96.7666 42.7128 97.8197 47.5323L98.148 49.0358H106.039C108.045 49.0358 109.678 50.6671 109.678 52.6744V60.3258H109.678Z" fill="#111111"/>
<path d="M78.0393 47.6118C79.2289 50.4244 79.8326 53.4146 79.8326 56.4996C79.8326 69.0893 69.5898 79.3333 56.9996 79.3333C44.4094 79.3333 34.1666 69.0893 34.1666 56.4996C34.1666 43.9096 44.4094 33.6666 56.9996 33.6666C59.316 33.6666 61.6016 34.0118 63.7901 34.6928L64.9257 31.0424C62.3686 30.2477 59.7021 29.8443 56.9996 29.8443C42.3013 29.8443 30.3438 41.8011 30.3438 56.4994C30.3438 71.1969 42.3013 83.1554 56.9996 83.1554C71.6974 83.1554 83.6554 71.1969 83.6554 56.4994C83.6554 52.9006 82.9504 49.4083 81.5597 46.1224L78.0393 47.6118Z" fill="#111111"/>
<path d="M44.5201 51.1302L41.8633 53.8789L54.3689 65.9684L78.1856 41.044L75.4219 38.4036L54.2611 60.5481L44.5201 51.1302Z" fill="#111111"/>
</svg>
