<svg width="124" height="124" viewBox="0 0 124 124" fill="none" xmlns="http://www.w3.org/2000/svg">
<path d="M102.792 47.8759L98.0139 39.1389L97.7855 29.1646C97.784 28.8445 97.6989 28.5303 97.5386 28.2532C97.3784 27.9761 97.1485 27.7456 96.8718 27.5847L88.3632 22.426L83.2047 13.8984C83.0353 13.625 82.8004 13.3982 82.5211 13.2386C82.2419 13.0791 81.9272 12.9918 81.6057 12.9848L71.6503 12.7564L62.9132 7.97847C62.632 7.82847 62.3182 7.75 61.9995 7.75C61.6809 7.75 61.3671 7.82847 61.0859 7.97847L52.3489 12.7564L42.3937 12.9848C42.0747 12.992 41.7628 13.0795 41.4867 13.2392C41.2105 13.3989 40.9791 13.6256 40.8137 13.8984L35.6362 22.426L27.1274 27.5846C26.8507 27.7455 26.6209 27.976 26.4606 28.2531C26.3004 28.5302 26.2153 28.8444 26.2138 29.1645L25.9854 39.1388L21.2075 47.8758C21.0485 48.154 20.9648 48.469 20.9648 48.7895C20.9648 49.11 21.0485 49.4249 21.2075 49.7032L25.9854 58.4403L26.2138 68.3957C26.2153 68.7159 26.3004 69.03 26.4606 69.3072C26.6209 69.5843 26.8507 69.8147 27.1274 69.9757L35.6362 75.1532L36.2642 76.2001C36.1676 76.3455 36.0967 76.5064 36.0549 76.6759L27.1084 110.197C27.019 110.548 27.0312 110.917 27.1435 111.262C27.2557 111.606 27.4635 111.912 27.7426 112.143C28.0217 112.375 28.3606 112.522 28.7201 112.568C29.0796 112.614 29.4448 112.558 29.7733 112.405L40.1665 107.341L48.1992 115.66C48.4329 115.903 48.7267 116.08 49.0509 116.174C49.375 116.268 49.7181 116.274 50.0456 116.193C50.3739 116.11 50.6741 115.942 50.9151 115.704C51.1562 115.466 51.3292 115.168 51.4161 114.841L58.5162 88.1732C59.1347 88.4299 61.2891 89.9167 61.9996 89.8101C62.6955 89.9282 64.8635 88.4323 65.4831 88.1732L72.5831 114.841C72.6743 115.165 72.8491 115.459 73.09 115.694C73.3308 115.929 73.6293 116.096 73.9553 116.179C74.2813 116.262 74.6234 116.258 74.9473 116.167C75.2711 116.075 75.5652 115.901 75.8 115.66L83.8328 107.341L94.2259 112.405C94.5544 112.558 94.9197 112.615 95.2792 112.568C95.6386 112.522 95.9776 112.375 96.2567 112.143C96.5358 111.912 96.7435 111.607 96.8558 111.262C96.968 110.917 96.9801 110.548 96.8907 110.197L87.9444 76.6759C87.9025 76.5064 87.8317 76.3454 87.735 76.2L88.3631 75.1531L96.8718 69.9756C97.1485 69.8147 97.3784 69.5842 97.5386 69.3071C97.6989 69.03 97.7839 68.7158 97.7854 68.3957L98.0138 58.4404L102.792 49.7033C102.951 49.425 103.034 49.1101 103.034 48.7896C103.034 48.4691 102.951 48.1541 102.792 47.8759ZM48.599 110.596L41.9368 103.687C41.656 103.398 41.2912 103.206 40.8945 103.138C40.4979 103.069 40.0898 103.128 39.7287 103.306L31.8481 107.151L38.9482 80.6161L40.7947 83.6619C40.964 83.9353 41.199 84.1621 41.4782 84.3217C41.7575 84.4812 42.0721 84.5685 42.3937 84.5755L52.349 84.8039L55.09 86.3077L48.599 110.596ZM92.1511 107.151L84.2706 103.306C83.9093 103.129 83.5014 103.071 83.105 103.139C82.7085 103.207 82.3437 103.399 82.0625 103.687L75.4002 110.596L68.9093 86.3076L71.6503 84.8039L81.6056 84.5755C83.2235 84.6191 83.9536 82.1615 85.051 80.6161L92.1511 107.151ZM94.4543 57.0128C94.0839 57.1596 94.0689 66.7983 94.0166 67.2726L85.9837 72.1266C85.6203 72.0758 80.7496 80.4046 80.4827 80.7875L71.0984 81.0159C70.8239 80.7609 62.4091 85.5509 61.9996 85.7366C61.5672 85.592 53.1776 80.6968 52.9009 80.9967L43.5166 80.7875C43.1949 80.41 38.4447 72.0488 38.0157 72.1265L29.9828 67.2726L29.7734 57.8883C30.0434 57.5548 25.2209 49.2366 25.0337 48.7895L29.545 40.5474C29.917 40.3963 29.9292 30.7832 29.9828 30.3064C30.3641 29.9668 38.7505 25.2684 38.6437 24.7865L43.5167 16.7726L52.9009 16.5632C53.1336 16.7754 61.6115 12.0245 61.9996 11.8235C62.432 11.9682 70.8217 16.8634 71.0983 16.5633L80.4827 16.7727C80.809 17.1489 85.5492 25.5148 85.9836 25.4336L94.0166 30.3066C94.1143 30.805 94.0191 40.3936 94.4542 40.5474L98.9656 48.7895L94.4543 57.0128Z" fill="#111111"/>
<path d="M62.0006 22.2773C56.7299 22.2773 51.5776 23.8403 47.1952 26.7685C42.8128 29.6967 39.3971 33.8588 37.3801 38.7282C35.3631 43.5977 34.8354 48.956 35.8636 54.1254C36.8919 59.2948 39.43 64.0432 43.1569 67.7701C46.8839 71.497 51.6323 74.0351 56.8017 75.0634C61.9711 76.0916 67.3293 75.5638 72.1988 73.5468C77.0683 71.5298 81.2303 68.1141 84.1585 63.7317C87.0867 59.3493 88.6497 54.1969 88.6496 48.9263C88.6417 41.861 85.8315 35.0873 80.8355 30.0914C75.8396 25.0954 69.0659 22.2853 62.0006 22.2773ZM62.0006 71.7684C57.4829 71.7684 53.0666 70.4287 49.3103 67.9188C45.5539 65.4089 42.6262 61.8415 40.8973 57.6677C39.1684 53.4938 38.7161 48.9011 39.5974 44.4701C40.4788 40.0392 42.6543 35.9692 45.8488 32.7746C49.0433 29.5801 53.1133 27.4046 57.5443 26.5232C61.9752 25.6419 66.5679 26.0942 70.7418 27.823C74.9156 29.5519 78.4831 32.4796 80.993 36.2359C83.5029 39.9923 84.8426 44.4085 84.8426 48.9263C84.836 54.9823 82.4273 60.7884 78.1451 65.0707C73.8628 69.353 68.0567 71.7618 62.0006 71.7684Z" fill="#111111"/>
<path d="M67.1391 43.7903V35.9941C67.1391 34.6319 66.5979 33.3255 65.6347 32.3623C64.6715 31.3991 63.3651 30.858 62.0029 30.858C60.6407 30.858 59.3344 31.3991 58.3711 32.3623C57.4079 33.3255 56.8668 34.6319 56.8668 35.9941V43.7903H49.0706C47.7082 43.7903 46.4016 44.3315 45.4382 45.2949C44.4748 46.2583 43.9336 47.5649 43.9336 48.9273C43.9336 50.2898 44.4748 51.5964 45.4382 52.5598C46.4016 53.5232 47.7082 54.0644 49.0706 54.0644H56.8668V61.8587C56.8668 63.2208 57.4079 64.5272 58.3711 65.4904C59.3344 66.4537 60.6407 66.9948 62.0029 66.9948C63.3651 66.9948 64.6715 66.4537 65.6347 65.4904C66.5979 64.5272 67.1391 63.2208 67.1391 61.8587V54.0644L74.9352 54.0643C76.2976 54.0643 77.6043 53.5231 78.5676 52.5597C79.531 51.5963 80.0722 50.2897 80.0722 48.9273C80.0722 47.5649 79.531 46.2583 78.5676 45.2949C77.6043 44.3315 76.2976 43.7903 74.9352 43.7903H67.1391ZM76.2643 48.9264C76.2627 49.2786 76.1222 49.6159 75.8733 49.8651C75.6245 50.1143 75.2874 50.2553 74.9352 50.2575H65.2355C64.9855 50.2573 64.7379 50.3065 64.5069 50.4021C64.2759 50.4977 64.066 50.6379 63.8892 50.8147C63.7125 50.9915 63.5723 51.2014 63.4766 51.4324C63.381 51.6634 63.3319 51.911 63.332 52.161V61.8587C63.332 62.2112 63.192 62.5492 62.9427 62.7985C62.6935 63.0478 62.3554 63.1878 62.0029 63.1878C61.6504 63.1878 61.3123 63.0478 61.0631 62.7985C60.8138 62.5492 60.6738 62.2112 60.6738 61.8587V52.1609C60.6739 51.9109 60.6248 51.6633 60.5292 51.4323C60.4336 51.2013 60.2934 50.9914 60.1166 50.8146C59.9398 50.6378 59.7299 50.4976 59.4989 50.402C59.2679 50.3064 59.0203 50.2572 58.7703 50.2574H49.0708C48.7228 50.2501 48.3916 50.1068 48.1481 49.8582C47.9046 49.6096 47.7682 49.2754 47.7682 48.9274C47.7682 48.5794 47.9045 48.2452 48.148 47.9966C48.3915 47.7479 48.7227 47.6046 49.0706 47.5973H58.7703C59.0203 47.5974 59.2679 47.5483 59.4989 47.4527C59.7299 47.3571 59.9398 47.2169 60.1166 47.0401C60.2934 46.8633 60.4336 46.6534 60.5292 46.4224C60.6248 46.1914 60.674 45.9438 60.6738 45.6938V35.9941C60.6738 35.6416 60.8139 35.3035 61.0631 35.0543C61.3124 34.805 61.6504 34.665 62.003 34.665C62.3555 34.665 62.6935 34.805 62.9428 35.0543C63.192 35.3035 63.3321 35.6416 63.3321 35.9941V45.6938C63.3319 45.9438 63.3811 46.1914 63.4767 46.4224C63.5723 46.6534 63.7125 46.8633 63.8893 47.0401C64.0661 47.2169 64.276 47.3571 64.507 47.4527C64.738 47.5483 64.9856 47.5974 65.2356 47.5973H74.9353C75.2876 47.5979 75.6253 47.7381 75.8744 47.9872C76.1236 48.2364 76.2638 48.5741 76.2643 48.9264Z" fill="#111111"/>
</svg>
