<svg width="110" height="110" viewBox="0 0 110 110" fill="none" xmlns="http://www.w3.org/2000/svg">
<g clip-path="url(#clip0_582_1307)">
<path d="M55 110C54.864 110 54.7281 109.987 54.5938 109.961C41.5597 107.455 29.7256 100.439 21.272 90.205C12.8193 79.9714 8.16406 67.0254 8.16406 53.7521V16.1502C8.16406 15.2111 8.77419 14.3803 9.67049 14.1L54.29 0.12085C54.5158 0.0419616 54.7633 0.0050354 55 0H55.0025C55.2459 0 55.4851 0.0419616 55.7108 0.12085L100.33 14.1C101.226 14.3811 101.836 15.2111 101.836 16.1502V53.7521C101.836 67.0254 97.1807 79.9714 88.7271 90.205C80.2744 100.439 68.4403 107.455 55.4062 109.961C55.2719 109.987 55.136 110 55 110ZM12.4609 17.728V53.7521C12.4609 78.9542 30.3257 100.719 55 105.662C79.6743 100.719 97.5382 78.9542 97.5382 53.7521V17.728L55 4.40094L12.4609 17.728Z" fill="black"/>
<path d="M55 97.6842C54.8254 97.6842 54.6509 97.6633 54.4814 97.6213C44.7815 95.2077 36.0291 89.5277 29.8347 81.628C23.6185 73.699 20.1953 63.7994 20.1953 53.7521V24.9882C20.1953 24.0491 20.8054 23.2191 21.7009 22.9388L54.3571 12.7077C54.7751 12.5768 55.2241 12.5768 55.642 12.7077L88.2983 22.9388C89.1937 23.2191 89.8038 24.0491 89.8038 24.9882V53.7521C89.8038 61.0962 87.9844 68.4068 84.5427 74.8932C83.9863 75.9414 82.6863 76.3392 81.6381 75.7836C80.5899 75.2272 80.1913 73.9272 80.7468 72.879C83.8612 67.0111 85.507 60.3971 85.507 53.7521V26.5668L54.9992 17.0087L24.4922 26.5668V53.7521C24.4922 72.4023 37.0102 88.5962 54.9992 93.3186C59.9968 92.0068 64.6403 89.7871 68.8096 86.7163C69.7646 86.013 71.1099 86.217 71.8132 87.172C72.5173 88.1271 72.3134 89.4724 71.3575 90.1756C66.5898 93.6878 61.2607 96.1921 55.5178 97.6213C55.3483 97.6633 55.1737 97.6842 55 97.6842Z" fill="black"/>
<path d="M51.0979 71.1687C50.5474 71.1687 49.9985 70.9589 49.5789 70.5392L35.1919 56.1523C34.3527 55.3139 34.3527 53.9535 35.1919 53.1142L42.484 45.8221C42.8869 45.4193 43.4332 45.1927 44.003 45.1927C44.5729 45.1927 45.1192 45.4193 45.522 45.8221L51.0979 51.398L64.4778 38.0173C65.317 37.1789 66.6774 37.178 67.5167 38.0173L74.8088 45.3094C75.2116 45.7122 75.4382 46.2585 75.4382 46.8284C75.4382 47.3982 75.2116 47.9446 74.8088 48.3474L52.6169 70.5392C52.1973 70.9589 51.6476 71.1687 51.0979 71.1687ZM39.749 54.6332L51.0979 65.9814L70.2509 46.8284L65.9968 42.5751L52.6169 55.9559C52.2141 56.3587 51.6678 56.5845 51.0979 56.5845C50.5281 56.5845 49.9817 56.3587 49.5789 55.9559L44.003 50.38L39.749 54.6332Z" fill="black"/>
<path d="M77.1758 84.0257C76.611 84.0257 76.0562 83.7975 75.6568 83.3963C75.2573 82.9968 75.0273 82.4421 75.0273 81.8773C75.0273 81.3125 75.2573 80.7578 75.6568 80.3583C76.0562 79.9588 76.611 79.7289 77.1758 79.7289C77.7406 79.7289 78.2953 79.9588 78.6948 80.3583C79.0943 80.7578 79.3242 81.3125 79.3242 81.8773C79.3242 82.4421 79.0943 82.9968 78.6948 83.3963C78.2953 83.7975 77.7406 84.0257 77.1758 84.0257Z" fill="black"/>
</g>
<defs>
<clipPath id="clip0_582_1307">
<rect width="110" height="110" fill="white"/>
</clipPath>
</defs>
</svg>
