<svg width="114" height="114" viewBox="0 0 114 114" fill="none" xmlns="http://www.w3.org/2000/svg">
<g clip-path="url(#clip0_582_1316)">
<path d="M89.2956 15.2012C81.9504 15.2012 75.9961 21.1557 75.9961 28.5007C75.9961 35.8457 81.9506 41.8003 89.2956 41.8003C96.6406 41.8003 102.595 35.8457 102.595 28.5007C102.587 21.1591 96.6373 15.2096 89.2956 15.2012ZM89.2956 38.0005C84.0491 38.0005 79.7958 33.7472 79.7958 28.5007C79.7958 23.2542 84.0491 19.0009 89.2956 19.0009C94.5421 19.0009 98.7954 23.2542 98.7954 28.5007C98.789 33.7448 94.5395 37.9943 89.2956 38.0005Z" fill="black"/>
<path d="M93.0972 26.6008H91.1974V24.701C91.1974 23.6516 90.3466 22.8011 89.2975 22.8011C88.2484 22.8011 87.3976 23.6518 87.3976 24.701V26.6008H85.4975C84.4482 26.6008 83.5977 27.4516 83.5977 28.5007C83.5977 29.5501 84.4484 30.4006 85.4975 30.4006H87.3974V32.3005C87.3974 33.3498 88.2479 34.2003 89.2973 34.2003C90.3466 34.2003 91.1971 33.3496 91.1971 32.3005V30.4006H93.097C94.1463 30.4006 94.9969 29.5498 94.9969 28.5007C94.9973 27.4514 94.1466 26.6008 93.0972 26.6008Z" fill="black"/>
<path d="M106.397 7.60129H100.697V5.70142C100.697 2.5536 98.1451 0.00158691 94.9973 0.00158691H83.5976C80.4498 0.00158691 77.8978 2.5536 77.8978 5.70142V7.60129H72.198C68.0008 7.60129 64.5983 11.0038 64.5983 15.201V33.2105C59.4481 30.4979 53.4976 29.7169 47.8218 31.0085C48.9041 27.139 49.4351 23.1362 49.3988 19.1185V8.70697C49.418 6.66371 47.8116 4.97402 45.7699 4.89008C38.1702 4.58795 34.4083 2.26438 32.835 0.900201C31.4308 -0.297654 29.3642 -0.297654 27.9597 0.900201C26.3902 2.25859 22.6208 4.58238 15.04 4.89008C12.9943 4.96912 11.3816 6.65993 11.3997 8.70697V19.1187C11.3997 33.5698 17.3636 44.1581 28.1799 48.9309C28.5147 49.0792 28.8645 49.192 29.223 49.2671C27.605 55.7482 28.7169 62.6091 32.2989 68.2475C29.7943 67.102 27.0733 66.5059 24.3191 66.4995H20.5497C19.7475 64.2302 17.6062 62.7095 15.1994 62.6995H5.69983C2.55201 62.6995 0 65.2515 0 68.3994V108.298C0 111.446 2.55201 113.998 5.69983 113.998H15.1996C16.8116 113.993 18.3454 113.302 19.4175 112.098H67.0681C69.8561 112.1 72.5907 111.333 74.972 109.883L110.577 88.2083C112.261 87.1917 113.446 85.5207 113.85 83.5954C114.253 81.6702 113.838 79.6639 112.703 78.057C112.664 77.9904 112.62 77.927 112.572 77.8671C110.733 75.4264 107.544 74.4278 104.642 75.3839L69.4585 87.1028C68.8785 87.2996 68.27 87.3996 67.6572 87.3992H66.1183C67.1759 84.883 67.0173 82.0202 65.6888 79.636C65.1898 78.8056 64.5858 78.043 63.8913 77.3675C74.3855 72.3674 79.9415 60.6988 77.208 49.4002H106.397C110.594 49.4002 113.997 45.9977 113.997 41.8005V15.201C113.997 11.0038 110.594 7.60129 106.397 7.60129ZM81.6975 5.7012C81.6975 4.65185 82.5483 3.80133 83.5974 3.80133H94.9971C96.0464 3.80133 96.8969 4.65207 96.8969 5.7012V7.60107H81.6973V5.7012H81.6975ZM29.7226 45.4575C17.7189 40.1625 15.1996 28.2118 15.1996 19.1187L15.1807 8.68604C23.9204 8.33848 28.4992 5.45606 30.3536 3.7804C32.2991 5.46385 36.8703 8.33826 45.5987 8.70697V19.1187C45.6677 23.6811 44.8835 28.2162 43.2864 32.4906C37.4726 35.0522 32.8609 39.7434 30.399 45.6002C30.1661 45.6014 29.9355 45.5528 29.7226 45.4575ZM15.1996 110.198H5.69983C4.65049 110.198 3.79996 109.348 3.79996 108.298V68.3996C3.79996 67.3502 4.65071 66.4997 5.69983 66.4997H15.1996C16.249 66.4997 17.0995 67.3505 17.0995 68.3996V108.298C17.0995 109.348 16.249 110.198 15.1996 110.198ZM50.7684 87.3989C47.0172 87.4009 43.3503 88.5109 40.2275 90.5889L38.8386 91.5198C37.9667 92.1053 37.7345 93.2867 38.3198 94.1588C38.9054 95.0307 40.0867 95.2629 40.9589 94.6776L42.3344 93.7505C44.833 92.0879 47.7671 91.2002 50.7681 91.1989H67.6568C68.6823 91.2 69.7009 91.0326 70.6719 90.7031L105.827 78.9823C107.13 78.5533 108.563 78.9674 109.436 80.0255C109.465 80.0729 109.497 80.1167 109.529 80.1622C110.091 80.9063 110.31 81.8536 110.132 82.7687C109.954 83.6836 109.396 84.48 108.597 84.9596L72.9955 106.638C71.2096 107.725 69.1586 108.3 67.0677 108.298H20.8995V70.2994H24.3194C27.8243 70.3037 31.2242 71.4966 33.9634 73.6833C37.3769 76.4063 41.6121 77.8925 45.9787 77.8991H55.9174C58.5845 77.9063 61.0546 79.305 62.4323 81.5889C63.3917 83.4761 63.1544 85.7504 61.8263 87.3989H50.7684ZM59.9756 74.8593C58.682 74.3604 57.3078 74.1028 55.9212 74.0994H45.9787C45.4072 74.0956 44.8363 74.0596 44.2688 73.9912C35.2299 69.719 30.4825 59.6437 32.9426 49.9535C35.4026 40.2633 44.381 33.6725 54.363 34.2291C64.3451 34.7857 72.535 42.3342 73.9023 52.2379C75.2696 62.1416 69.4315 71.6267 59.9736 74.8671L59.9756 74.8593ZM110.197 41.8003C110.197 43.899 108.495 45.6002 106.397 45.6002H75.9977C74.3537 41.6961 71.7373 38.2777 68.398 35.6712V15.201C68.398 13.1023 70.0993 11.401 72.198 11.401H106.397C108.496 11.401 110.197 13.1023 110.197 15.201L110.197 41.8003Z" fill="black"/>
<path d="M39.1381 13.6811C38.2987 13.0515 37.1077 13.2216 36.4781 14.0612L26.3932 27.509L24.1417 25.2576C23.3963 24.5375 22.2111 24.5478 21.4784 25.2808C20.7454 26.0137 20.7352 27.1987 21.4552 27.9441L25.2552 31.7441C25.6115 32.1003 26.0946 32.3007 26.5985 32.3007H26.7334C27.2836 32.2604 27.789 31.9832 28.1185 31.5408L39.5182 16.3411C39.8205 15.9379 39.9503 15.4314 39.8791 14.9324C39.8076 14.4337 39.5411 13.9835 39.1381 13.6811Z" fill="black"/>
<path d="M53.1974 45.6002C55.2961 45.6002 56.9973 47.3015 56.9973 49.4002C56.9973 50.4495 57.8481 51.3001 58.8972 51.3001C59.9463 51.3001 60.7971 50.4493 60.7971 49.4002C60.7842 45.9453 58.4423 42.934 55.0972 42.0701V41.8003C55.0972 40.7509 54.2465 39.9004 53.1974 39.9004C52.148 39.9004 51.2975 40.7511 51.2975 41.8003V42.0701C47.5959 43.0228 45.1815 46.5812 45.664 50.3727C46.1465 54.1642 49.3751 57.0046 53.1974 56.9999C55.2961 56.9999 56.9973 58.7012 56.9973 60.7999C56.9973 62.8986 55.2961 64.5998 53.1974 64.5998C51.0987 64.5998 49.3974 62.8986 49.3974 60.7999C49.3974 59.7505 48.5466 58.9 47.4975 58.9C46.4484 58.9 45.5977 59.7507 45.5977 60.7999C45.6106 64.2547 47.9522 67.266 51.2975 68.1299V68.3998C51.2975 69.4491 52.1482 70.2996 53.1974 70.2996C54.2467 70.2996 55.0972 69.4491 55.0972 68.3998V68.1299C58.7988 67.1772 61.2132 63.6188 60.7307 59.8273C60.2482 56.0356 57.0196 53.1955 53.1974 53.2001C51.0987 53.2001 49.3974 51.4989 49.3974 49.4002C49.3976 47.3015 51.0989 45.6002 53.1974 45.6002Z" fill="black"/>
</g>
<defs>
<clipPath id="clip0_582_1316">
<rect width="114" height="114" fill="white"/>
</clipPath>
</defs>
</svg>
