<svg width="74" height="56" viewBox="0 0 74 56" fill="none" xmlns="http://www.w3.org/2000/svg">
<path d="M67.6087 8.68906C67.5074 8.24264 67.1651 7.89595 66.7118 7.78435L37.5113 0.689131C36.9833 0.55853 36.4263 0.795987 36.1587 1.26378C35.8911 1.73157 35.973 2.32284 36.3588 2.70039L45.3473 11.5528C37.8006 15.8175 21.9454 20.4194 11.0474 20.4194C10.1673 20.4194 9.33068 20.3886 8.56155 20.3292C8.23847 20.3031 7.92262 20.4028 7.67427 20.6094C7.42593 20.8184 7.27404 21.1081 7.24993 21.431C7.19688 22.0911 7.7008 22.6682 8.36866 22.7204C9.20289 22.7845 10.1046 22.8178 11.0474 22.8178C23.1268 22.8178 40.8145 17.4227 47.9681 12.7828C48.2743 12.5834 48.472 12.2628 48.5106 11.9019C48.5492 11.5433 48.4214 11.1895 48.161 10.933L41.1713 4.04915L65.3977 9.93808L70.6346 33.0688L63.5171 26.0543C63.2567 25.7978 62.8951 25.672 62.5334 25.71C62.1669 25.748 61.8414 25.9427 61.6389 26.2443C58.4539 31.0124 55.0036 40.3207 53.0531 49.4106C52.9132 50.0565 53.3352 50.6952 53.9934 50.8329C54.0754 50.8496 54.1597 50.8591 54.2441 50.8591C54.8155 50.8591 55.3171 50.4601 55.4352 49.9069C57.135 41.9853 60.0886 33.66 62.8878 28.8278L71.8739 37.6826C72.2548 38.0578 72.8504 38.1409 73.3205 37.8868C73.7931 37.6327 74.039 37.0913 73.9233 36.576L67.6111 8.69381L67.6087 8.68906Z" fill="#002C3F"/>
<path d="M46.4491 55.6536H4.49889C2.16015 55.6536 0.257812 53.78 0.257812 51.4767V29.576C0.257812 27.2727 2.16015 25.3992 4.49889 25.3992H46.4491C48.7879 25.3992 50.6902 27.2727 50.6902 29.576V51.4767C50.6902 53.78 48.7879 55.6536 46.4491 55.6536ZM4.49889 28.1489C3.70082 28.1489 3.04983 28.7901 3.04983 29.576V51.4767C3.04983 52.2627 3.70082 52.9038 4.49889 52.9038H46.4491C47.2472 52.9038 47.8982 52.2627 47.8982 51.4767V29.576C47.8982 28.7901 47.2472 28.1489 46.4491 28.1489H4.49889Z" fill="#002C3F"/>
<path d="M25.2858 43.9084L1.62109 28.4808L3.16418 26.187L25.3388 40.6458L48.1451 26.7997L49.6111 29.141L25.2858 43.9084Z" fill="#002C3F"/>
</svg>
