<svg width="52" height="47" viewBox="0 0 52 47" fill="none" xmlns="http://www.w3.org/2000/svg">
<path d="M20.8433 41.6241C20.6498 41.6241 20.4596 41.5735 20.2916 41.4773C20.1237 41.3812 19.9838 41.2428 19.8858 41.0758C16.1967 34.7909 6.3616 21.4085 6.26279 21.274C6.10479 21.0592 6.02937 20.7948 6.0503 20.529C6.07124 20.2631 6.18714 20.0137 6.37681 19.8263L9.40108 16.8377C9.58579 16.6552 9.82862 16.5432 10.0874 16.5212C10.3461 16.4992 10.6044 16.5686 10.8172 16.7173L20.6123 23.5565C20.6123 23.5565 29.2506 14.9539 36.002 9.32774C43.5116 3.06977 50.2246 0.0957031 50.2246 0.0957031C50.4496 0.0956888 50.6694 0.164086 50.8547 0.291827C51.0401 0.419568 51.1822 0.600618 51.2623 0.810976C51.3423 1.02133 51.3566 1.25106 51.3031 1.4697C51.2497 1.68834 51.131 1.88557 50.9629 2.03524C37.0686 14.4108 21.959 40.7982 21.808 41.0633C21.7116 41.2325 21.5724 41.3734 21.4044 41.4718C21.2363 41.5702 21.0453 41.6227 20.8505 41.624L20.8433 41.6241ZM8.61867 20.7322C10.6032 23.4486 17.1917 32.5332 20.8242 38.3446C22.2933 35.8615 25.3675 30.7868 29.2907 24.9795C35.8831 15.221 40.8858 9.30613 46.3277 4.00846C44.5886 5.12507 32.8731 12.7696 21.724 25.7484C21.55 25.9751 21.2952 26.126 21.0128 26.1697C20.7303 26.2133 20.4419 26.1463 20.2076 25.9827L10.304 19.0673L8.61867 20.7322Z" fill="black"/>
<path d="M20.6294 46.2498C9.60976 46.2498 0.644531 37.2847 0.644531 26.2649C0.644531 15.2452 9.60976 6.28004 20.6294 6.28004C22.839 6.2776 25.0335 6.64229 27.1235 7.35923C27.402 7.45493 27.6311 7.65734 27.7604 7.92194C27.8896 8.18654 27.9085 8.49166 27.8128 8.77016C27.7171 9.04866 27.5147 9.27774 27.2501 9.407C26.9855 9.53626 26.6803 9.55512 26.4018 9.45942C24.5438 8.82224 22.5927 8.49822 20.6284 8.50059C10.8331 8.50059 2.86408 16.4697 2.86408 26.2649C2.86408 36.0602 10.8331 44.0293 20.6284 44.0293C30.4238 44.0293 38.3928 36.0602 38.3928 26.2649C38.3931 25.063 38.2723 23.8641 38.0324 22.6864C38.0032 22.5435 38.0024 22.3963 38.0301 22.2531C38.0578 22.1099 38.1135 21.9736 38.1939 21.8519C38.2743 21.7302 38.3778 21.6256 38.4987 21.5439C38.6195 21.4623 38.7552 21.4052 38.8981 21.376C39.041 21.3468 39.1882 21.3461 39.3314 21.3738C39.4746 21.4015 39.6109 21.4571 39.7326 21.5375C39.8543 21.6179 39.959 21.7215 40.0406 21.8423C40.1223 21.9631 40.1793 22.0989 40.2085 22.2418C40.4783 23.5658 40.6141 24.9137 40.6139 26.2649C40.6143 37.2847 31.6491 46.2498 20.6294 46.2498Z" fill="black"/>
</svg>
