<svg width="59" height="56" viewBox="0 0 59 56" fill="none" xmlns="http://www.w3.org/2000/svg">
<path d="M22.3232 53.7199C22.3232 52.9989 21.7101 52.4101 20.9592 52.4101H3.46235V47.6147H16.9537C17.7045 47.6147 18.3176 47.026 18.3176 46.305C18.3176 45.584 17.7045 44.9953 16.9537 44.9953H6.92768V40.1947H17.0806C17.8315 40.1947 18.4446 39.6059 18.4446 38.8849C18.4446 38.1639 17.8315 37.5752 17.0806 37.5752H5.5637C4.81283 37.5752 4.19971 38.1639 4.19971 38.8849V44.9953H2.09836C1.34749 44.9953 0.734375 45.584 0.734375 46.305V53.7199C0.734375 54.4408 1.34749 55.0296 2.09836 55.0296H20.9592C21.7101 55.0296 22.3232 54.4408 22.3232 53.7199Z" fill="#002C3F"/>
<path d="M55.5128 22.7378H32.8679C32.117 22.7378 31.5039 23.3265 31.5039 24.0475V26.6981C31.5039 27.4191 32.117 28.0078 32.8679 28.0078C33.6188 28.0078 34.2319 27.4191 34.2319 26.6981V25.3572H54.1488V30.1527H45.3328C44.582 30.1527 43.9689 30.7414 43.9689 31.4624C43.9689 32.1834 44.582 32.7721 45.3328 32.7721H55.8774V37.5727H49.7165C48.9656 37.5727 48.3525 38.1615 48.3525 38.8825C48.3525 39.6034 48.9656 40.1922 49.7165 40.1922H52.1474V44.9928H49.8435C49.0926 44.9928 48.4795 45.5815 48.4795 46.3025C48.4795 47.0235 49.0926 47.6122 49.8435 47.6122H55.8774V52.4076H45.8379C45.0871 52.4076 44.4739 52.9964 44.4739 53.7174C44.4739 54.4384 45.0871 55.0271 45.8379 55.0271H57.2414C57.9923 55.0271 58.6054 54.4384 58.6054 53.7174V46.3025C58.6054 45.5815 57.9923 44.9928 57.2414 44.9928H54.8753V40.1922H57.2414C57.9923 40.1922 58.6054 39.6034 58.6054 38.8825V31.4624C58.6054 30.7414 57.9923 30.1527 57.2414 30.1527H56.8768V24.0475C56.8768 23.3265 56.2636 22.7378 55.5128 22.7378Z" fill="#002C3F"/>
<path d="M20.7109 42.8505C20.7109 49.5677 26.4019 55.0322 33.3974 55.0322C40.3929 55.0322 46.0838 49.5677 46.0838 42.8505C46.0838 36.1332 40.3929 30.6687 33.3974 30.6687C26.4019 30.6687 20.7109 36.1332 20.7109 42.8505ZM23.4389 42.8505C23.4389 37.5778 27.9063 33.2882 33.3974 33.2882C38.8884 33.2882 43.3558 37.5778 43.3558 42.8505C43.3558 48.1231 38.8884 52.4128 33.3974 52.4128C27.9063 52.4128 23.4389 48.1231 23.4389 42.8505Z" fill="#002C3F"/>
<path d="M2.64201 19.8744C2.82567 19.9159 3.01474 19.9366 3.20381 19.9366C3.53603 19.9366 3.85474 19.8718 4.14644 19.7577L10.5558 23.8995C10.5261 24.3819 10.6504 24.8617 10.9205 25.2793C11.2689 25.8161 11.8118 26.1922 12.4519 26.3349C12.6383 26.3763 12.83 26.3971 13.0164 26.3971C13.4729 26.3971 13.9212 26.2726 14.3129 26.0418C14.872 25.7098 15.2636 25.1859 15.4122 24.5713C15.5067 24.1874 15.4986 23.7958 15.396 23.4275L24.9979 9.43548C25.0222 9.43548 25.0465 9.44067 25.0681 9.44067C25.4327 9.44067 25.792 9.35768 26.1215 9.20726L34.7727 14.1349C34.7727 14.5681 34.8969 14.996 35.14 15.372C35.4884 15.9089 36.0313 16.285 36.6715 16.4276C36.8551 16.4691 37.0442 16.4899 37.2333 16.4899C38.3839 16.4899 39.3697 15.7377 39.6344 14.6614C39.7073 14.358 39.7154 14.0545 39.6695 13.7641L49.7117 4.70491C49.8954 4.7464 50.0844 4.76715 50.2735 4.76715C51.4241 4.76715 52.41 4.01503 52.6747 2.93872C52.8259 2.32406 52.7152 1.68865 52.3695 1.15179C52.0237 0.614929 51.4781 0.238869 50.838 0.0962256C50.1979 -0.0490115 49.5361 0.0547293 48.977 0.389293C48.4179 0.723857 48.0263 1.24515 47.8778 1.85982C47.8021 2.17104 47.7913 2.48745 47.8453 2.79608L37.8383 11.8241C37.8383 11.8241 37.814 11.8163 37.8032 11.8137C37.29 11.697 36.7633 11.7437 36.2852 11.9408L27.5341 6.95349C27.5152 6.55409 27.3909 6.16506 27.1668 5.81753C26.821 5.28067 26.2754 4.90461 25.6353 4.76197C24.9952 4.61673 24.3334 4.72306 23.7743 5.05503C23.2153 5.3896 22.8236 5.91089 22.6724 6.52556C22.5562 6.99758 22.594 7.47738 22.775 7.91828L13.3351 21.6769C12.9489 21.6302 12.5653 21.6691 12.2034 21.7936L5.67789 17.5765C5.68059 17.1356 5.55635 16.6999 5.30786 16.3161C4.95943 15.7792 4.41654 15.4032 3.77641 15.2605C3.13628 15.1153 2.47455 15.219 1.91545 15.5536C1.35635 15.8882 0.964709 16.4095 0.816156 17.0241C0.664902 17.6388 0.775642 18.2742 1.12136 18.8111C1.46979 19.3479 2.01268 19.724 2.65281 19.8666L2.64201 19.8744Z" fill="#002C3F"/>
<path d="M33.2672 43.7764C34.0072 43.7764 34.6122 44.3548 34.6122 45.068C34.6122 45.7812 34.0099 46.3595 33.2672 46.3595C32.7756 46.3595 32.3245 46.1028 32.0868 45.6904C31.9113 45.3844 31.6223 45.1613 31.2711 45.0628C30.92 44.9642 30.5527 45.0057 30.234 45.1743C29.5749 45.5218 29.3346 46.3206 29.6965 46.9535C30.4122 48.2035 31.7816 48.979 33.2645 48.979C35.509 48.979 37.3375 47.2258 37.3375 45.068C37.3375 42.9102 35.5117 41.1569 33.2645 41.1569C32.5244 41.1569 31.9194 40.5786 31.9194 39.8654C31.9194 39.1522 32.5217 38.5738 33.2645 38.5738C33.756 38.5738 34.2071 38.8306 34.4421 39.2429C34.804 39.8757 35.6332 40.1066 36.2949 39.759C36.954 39.4115 37.1944 38.6127 36.8324 37.9799C36.1167 36.7298 34.7473 35.9543 33.2645 35.9543C31.02 35.9543 29.1914 37.7076 29.1914 39.8654C29.1914 42.0232 31.0173 43.7764 33.2645 43.7764H33.2672Z" fill="#002C3F"/>
<path d="M33.1719 37.7958C32.6506 37.7958 32.2266 37.3886 32.2266 36.888V34.668C32.2266 34.1674 32.6506 33.7603 33.1719 33.7603C33.6932 33.7603 34.1172 34.1674 34.1172 34.668V36.888C34.1172 37.3886 33.6932 37.7958 33.1719 37.7958Z" fill="#002C3F"/>
<path d="M33.1719 51.2015C32.6506 51.2015 32.2266 50.7943 32.2266 50.2938V48.0737C32.2266 47.5732 32.6506 47.166 33.1719 47.166C33.6932 47.166 34.1172 47.5732 34.1172 48.0737V50.2938C34.1172 50.7943 33.6932 51.2015 33.1719 51.2015Z" fill="#002C3F"/>
</svg>
