<svg width="52" height="52" viewBox="0 0 52 52" fill="none" xmlns="http://www.w3.org/2000/svg">
<path fill-rule="evenodd" clip-rule="evenodd" d="M9.60505 21.6112C7.70997 23.5063 5.89488 25.3241 4.24255 26.9764C1.52544 29.6908 0 33.3734 0 37.2159C0 41.0557 1.52544 44.7411 4.24255 47.4554C6.9569 50.1725 10.6422 51.698 14.482 51.698C18.3246 51.698 22.0072 50.1725 24.7215 47.4554C26.3739 45.8031 28.1917 43.988 30.0868 42.0929C31.1626 41.0144 31.1626 39.2682 30.0868 38.1897C29.011 37.1139 27.2621 37.1139 26.1863 38.1897C24.2885 40.0875 22.4734 41.9026 20.821 43.5549C19.1411 45.2348 16.8599 46.181 14.482 46.181C12.1042 46.181 9.82572 45.2348 8.14305 43.5549C6.46313 41.8722 5.51697 39.5937 5.51697 37.2159C5.51697 34.8381 6.46313 32.5568 8.14305 30.8769C9.79538 29.2246 11.6105 27.4095 13.5083 25.5117C14.5841 24.4359 14.5841 22.687 13.5083 21.6112C12.4297 20.5354 10.6836 20.5354 9.60505 21.6112Z" fill="#002C3F"/>
<path fill-rule="evenodd" clip-rule="evenodd" d="M41.7925 30.3888C43.6876 28.4937 45.5027 26.6759 47.155 25.0235C49.8721 22.3092 51.3976 18.6266 51.3976 14.784C51.3976 10.9442 49.8721 7.2589 47.155 4.54455C44.4407 1.82744 40.7553 0.302002 36.9155 0.302002C33.0729 0.302002 29.3904 1.82744 26.676 4.54455C25.0237 6.19688 23.2058 8.01197 21.3108 9.90705C20.235 10.9856 20.235 12.7317 21.3108 13.8103C22.3866 14.8861 24.1355 14.8861 25.2113 13.8103C27.1091 11.9125 28.9242 10.0974 30.5765 8.44505C32.2564 6.76513 34.5377 5.81897 36.9155 5.81897C39.2933 5.81897 41.5718 6.76513 43.2545 8.44505C44.9344 10.1277 45.8806 12.4062 45.8806 14.784C45.8806 17.1619 44.9344 19.4431 43.2545 21.123C41.6022 22.7754 39.7871 24.5905 37.8893 26.4883C36.8134 27.5641 36.8134 29.313 37.8893 30.3888C38.9678 31.4646 40.7139 31.4646 41.7925 30.3888Z" fill="#002C3F"/>
<path fill-rule="evenodd" clip-rule="evenodd" d="M17.4086 38.1899L37.8876 17.7109C38.9662 16.6351 38.9662 14.8862 37.8876 13.8104C36.8118 12.7318 35.0629 12.7318 33.9871 13.8104L13.5081 34.2894C12.4296 35.3652 12.4296 37.1141 13.5081 38.1899C14.584 39.2685 16.3328 39.2685 17.4086 38.1899Z" fill="#002C3F"/>
</svg>
