<svg width="53" height="48" viewBox="0 0 53 48" fill="none" xmlns="http://www.w3.org/2000/svg">
<path d="M24.1741 47.3436C24.0138 47.3435 23.8552 47.3104 23.7083 47.2461C23.5614 47.1818 23.4294 47.0879 23.3206 46.9701L0.308794 22.0779C0.155392 21.912 0.0536952 21.7049 0.0161517 21.482C-0.0213918 21.2592 0.00684591 21.0302 0.0974093 20.8232C0.187973 20.6161 0.336933 20.44 0.526059 20.3163C0.715186 20.1926 0.936273 20.1267 1.16226 20.1267L8.51798 20.8953C8.68429 20.8954 8.84866 20.931 9 21C9.15134 21.069 9.28613 21.1696 9.39528 21.295L21 33C21.8312 31.2233 24.6766 24.8998 27.5 21.295C31.674 15.9659 38.0083 7.86798 51.2914 0.792888C51.5481 0.65617 51.8468 0.620687 52.1284 0.693444C52.4101 0.766202 52.6542 0.941911 52.8126 1.18588C52.971 1.42984 53.0321 1.72433 52.984 2.01119C52.9358 2.29805 52.7818 2.55643 52.5525 2.73531C52.5018 2.77494 47.3803 6.80809 41.4861 14.1955C36.0614 20.9937 28.8504 32.1099 25.302 46.4607C25.2397 46.7128 25.0947 46.9368 24.8902 47.0969C24.6857 47.257 24.4338 47.3435 24.1741 47.3436Z" fill="#002C3F"/>
</svg>
