<svg width="60" height="60" viewBox="0 0 60 60" fill="none" xmlns="http://www.w3.org/2000/svg">
<g clip-path="url(#clip0_1041_48)">
<path d="M58.2401 36.1745C57.7736 36.1745 57.3263 35.9892 56.9965 35.6593C56.6666 35.3295 56.4813 34.8822 56.4813 34.4157V18.5273C56.4798 17.1216 55.9207 15.7739 54.9267 14.7799C53.9327 13.7859 52.585 13.2268 51.1793 13.2252H41.7666C41.3001 13.2252 40.8528 13.0399 40.5229 12.7101C40.1931 12.3803 40.0078 11.933 40.0078 11.4665C40.0078 11.0001 40.1931 10.5527 40.5229 10.2229C40.8528 9.89306 41.3001 9.70776 41.7666 9.70776H51.1793C53.5176 9.71025 55.7595 10.6402 57.4129 12.2937C59.0663 13.9471 59.9963 16.1889 59.9988 18.5273V34.4157C59.9988 34.8822 59.8135 35.3295 59.4837 35.6593C59.1539 35.9892 58.7065 36.1745 58.2401 36.1745Z" fill="#002C3F"/>
<path d="M49.1099 59.1178H10.8866C8.00012 59.1132 5.23324 57.9642 3.19251 55.9228C1.15178 53.8814 0.00372415 51.1142 3.40101e-06 48.2277V20.2919C-0.000358279 20.1084 0.0281294 19.926 0.0844229 19.7513C0.028368 19.3457 0.000162174 18.9367 3.40101e-06 18.5273C-0.000304693 17.369 0.227608 16.222 0.67072 15.1518C1.11383 14.0817 1.76346 13.1093 2.58249 12.2902C3.40151 11.4712 4.37389 10.8216 5.44406 10.3785C6.51423 9.93537 7.66122 9.70746 8.8195 9.70776H27.0588C27.5253 9.70776 27.9726 9.89306 28.3024 10.2229C28.6322 10.5527 28.8175 11.0001 28.8175 11.4665C28.8175 11.933 28.6322 12.3803 28.3024 12.7101C27.9726 13.0399 27.5253 13.2252 27.0588 13.2252H8.8195C8.11667 13.2148 7.41878 13.3442 6.76642 13.6059C6.11406 13.8677 5.52026 14.2565 5.01954 14.7498C4.51883 15.2431 4.12121 15.8311 3.84981 16.4795C3.57841 17.1279 3.43864 17.8238 3.43864 18.5267C3.43864 19.2296 3.57841 19.9255 3.84981 20.5739C4.12121 21.2223 4.51883 21.8102 5.01954 22.3035C5.52026 22.7969 6.11406 23.1857 6.76642 23.4474C7.41878 23.7092 8.11667 23.8386 8.8195 23.8281H49.1099C51.997 23.8318 54.7648 24.9804 56.8063 27.0219C58.8477 29.0633 59.9963 31.8311 60 34.7182V48.2277C59.9963 51.1148 58.8477 53.8826 56.8063 55.9241C54.7648 57.9655 51.997 59.1141 49.1099 59.1178ZM3.51748 25.5704V48.2277C3.5212 50.1819 4.29915 52.055 5.68099 53.4368C7.06282 54.8187 8.93592 55.5966 10.8901 55.6003H49.1134C51.0676 55.5966 52.9407 54.8187 54.3225 53.4368C55.7044 52.055 56.4823 50.1819 56.486 48.2277V34.7182C56.4823 32.764 55.7044 30.8909 54.3225 29.5091C52.9407 28.1273 51.0676 27.3493 49.1134 27.3456H8.8195C6.90588 27.3478 5.04398 26.7244 3.51748 25.5704Z" fill="#002C3F"/>
<path d="M58.2405 48.5266H44.1201C42.2494 48.5266 40.4552 47.7835 39.1324 46.4606C37.8096 45.1378 37.0664 43.3437 37.0664 41.4729C37.0664 39.6021 37.8096 37.808 39.1324 36.4852C40.4552 35.1623 42.2494 34.4192 44.1201 34.4192H58.2405C58.7069 34.4192 59.1542 34.6045 59.4841 34.9343C59.8139 35.2641 59.9992 35.7115 59.9992 36.1779V46.7679C59.9992 47.2343 59.8139 47.6817 59.4841 48.0115C59.1542 48.3413 58.7069 48.5266 58.2405 48.5266ZM44.1201 37.9332C43.1823 37.9332 42.2828 38.3057 41.6196 38.9689C40.9565 39.6321 40.5839 40.5315 40.5839 41.4694C40.5839 42.4073 40.9565 43.3067 41.6196 43.9699C42.2828 44.6331 43.1823 45.0056 44.1201 45.0056H56.4817V37.9332H44.1201Z" fill="#002C3F"/>
<path d="M49.4176 20.2859H8.82124C8.35479 20.2859 7.90745 20.1006 7.57762 19.7708C7.24779 19.441 7.0625 18.9936 7.0625 18.5272C7.0625 18.0607 7.24779 17.6134 7.57762 17.2836C7.90745 16.9537 8.35479 16.7684 8.82124 16.7684H49.4176C49.8841 16.7684 50.3314 16.9537 50.6613 17.2836C50.9911 17.6134 51.1764 18.0607 51.1764 18.5272C51.1764 18.9936 50.9911 19.441 50.6613 19.7708C50.3314 20.1006 49.8841 20.2859 49.4176 20.2859Z" fill="#002C3F"/>
<path d="M44.1215 20.2859C43.7524 20.2859 43.3926 20.1697 43.0931 19.9538C42.7937 19.7379 42.5697 19.4332 42.4531 19.083L37.9296 5.51253L18.7007 19.9342C18.3276 20.2141 17.8585 20.3342 17.3967 20.2683C16.935 20.2023 16.5183 19.9556 16.2385 19.5824C15.9586 19.2093 15.8384 18.7402 15.9044 18.2785C15.9704 17.8167 16.2171 17.4001 16.5902 17.1202L37.7713 1.2341C37.9943 1.0669 38.2538 0.955091 38.5284 0.907873C38.8031 0.860656 39.0851 0.879385 39.3511 0.962517C39.6171 1.04565 39.8595 1.19081 40.0584 1.38602C40.2573 1.58124 40.4069 1.82092 40.495 2.08533L45.79 17.9703C45.8783 18.2347 45.9024 18.5163 45.8605 18.7919C45.8185 19.0675 45.7117 19.3291 45.5487 19.5553C45.3857 19.7815 45.1714 19.9657 44.9232 20.0927C44.6751 20.2197 44.4003 20.286 44.1215 20.2859Z" fill="#002C3F"/>
</g>
<defs>
<clipPath id="clip0_1041_48">
<rect width="60" height="60" fill="white"/>
</clipPath>
</defs>
</svg>
