<svg width="77" height="78" viewBox="0 0 77 78" fill="none" xmlns="http://www.w3.org/2000/svg">
<g clip-path="url(#clip0_1041_66)">
<path d="M58.1551 46.2793C52.8032 46.2793 48.4492 50.6333 48.4492 55.9852C48.4492 61.3372 52.8032 65.6911 58.1551 65.6911C63.508 65.6911 67.861 61.3372 67.861 55.9852C67.861 50.6333 63.5071 46.2793 58.1551 46.2793ZM58.1551 60.8382C55.4788 60.8382 53.3022 58.6616 53.3022 55.9852C53.3022 53.3089 55.4788 51.1322 58.1551 51.1322C60.8315 51.1322 63.0081 53.3089 63.0081 55.9852C63.0081 58.6617 60.8315 60.8382 58.1551 60.8382Z" fill="#002C3F"/>
<path d="M24.995 46.2793C19.643 46.2793 15.2891 50.6333 15.2891 55.9852C15.2891 61.3372 19.643 65.6911 24.995 65.6911C30.3469 65.6911 34.7009 61.3372 34.7009 55.9852C34.7009 50.6333 30.3469 46.2793 24.995 46.2793ZM24.995 60.8382C22.3186 60.8382 20.142 58.6616 20.142 55.9852C20.142 53.3089 22.3186 51.1322 24.995 51.1322C27.6706 51.1322 29.8479 53.3089 29.8479 55.9852C29.8479 58.6617 27.6713 60.8382 24.995 60.8382Z" fill="#002C3F"/>
<path d="M64.6901 18.4981C64.2776 17.6788 63.4389 17.1619 62.5216 17.1619H49.7422V22.0148H61.0252L67.6325 35.1566L71.9695 32.9759L64.6901 18.4981Z" fill="#002C3F"/>
<path d="M50.8759 53.6399H32.5156V58.4928H50.8759V53.6399Z" fill="#002C3F"/>
<path d="M17.713 53.6398H9.3014C7.96112 53.6398 6.875 54.726 6.875 56.0662C6.875 57.4065 7.96127 58.4926 9.3014 58.4926H17.7132C19.0535 58.4926 20.1396 57.4063 20.1396 56.0662C20.1396 54.7259 19.0533 53.6398 17.713 53.6398Z" fill="#002C3F"/>
<path d="M76.4904 38.8059L71.7176 32.6588C71.259 32.0667 70.5513 31.7205 69.8014 31.7205H52.169V14.7352C52.169 13.395 51.0828 12.3088 49.7426 12.3088H9.3014C7.96112 12.3088 6.875 13.3951 6.875 14.7352C6.875 16.0754 7.96127 17.1616 9.3014 17.1616H47.3161V34.1469C47.3161 35.4872 48.4024 36.5733 49.7425 36.5733H68.6132L72.1469 41.1253V53.6395H65.4337C64.0934 53.6395 63.0072 54.7258 63.0072 56.0659C63.0072 57.4062 64.0935 58.4923 65.4337 58.4923H74.5733C75.9136 58.4923 76.9997 57.406 76.9999 56.0659V40.2941C76.9999 39.7554 76.8203 39.2313 76.4904 38.8059Z" fill="#002C3F"/>
<path d="M17.5492 41.3457H6.38734C5.04706 41.3457 3.96094 42.432 3.96094 43.7721C3.96094 45.1124 5.04721 46.1985 6.38734 46.1985H17.549C18.8893 46.1985 19.9754 45.1122 19.9754 43.7721C19.9756 42.432 18.8893 41.3457 17.5492 41.3457Z" fill="#002C3F"/>
<path d="M23.1323 31.8014H2.4264C1.08627 31.8014 0 32.8877 0 34.2279C0 35.5682 1.08627 36.6543 2.4264 36.6543H23.1323C24.4726 36.6543 25.5587 35.5681 25.5587 34.2279C25.5587 32.8878 24.4726 31.8014 23.1323 31.8014Z" fill="#002C3F"/>
<path d="M27.0933 22.2573H6.38734C5.04706 22.2573 3.96094 23.3436 3.96094 24.6837C3.96094 26.024 5.04721 27.1101 6.38734 27.1101H27.0933C28.4335 27.1101 29.5197 26.0239 29.5197 24.6837C29.5198 23.3436 28.4335 22.2573 27.0933 22.2573Z" fill="#002C3F"/>
</g>
<defs>
<clipPath id="clip0_1041_66">
<rect width="77" height="77" fill="white" transform="translate(0 0.5)"/>
</clipPath>
</defs>
</svg>
